<?xml version="1.0" encoding="UTF-8" standalone="no"?>
<svg
   xmlns:dc="http://purl.org/dc/elements/1.1/"
   xmlns:cc="http://creativecommons.org/ns#"
   xmlns:rdf="http://www.w3.org/1999/02/22-rdf-syntax-ns#"
   xmlns:svg="http://www.w3.org/2000/svg"
   xmlns="http://www.w3.org/2000/svg"
   viewBox="0 0 203.32268 419.68134"
   height="419.68134"
   width="203.32268"
   xml:space="preserve"
   id="svg2"
   version="1.1"><metadata
     id="metadata8"><rdf:RDF><cc:Work
         rdf:about=""><dc:format>image/svg+xml</dc:format><dc:type
           rdf:resource="http://purl.org/dc/dcmitype/StillImage" /></cc:Work></rdf:RDF></metadata><defs
     id="defs6"><linearGradient
       id="linearGradient28"
       spreadMethod="pad"
       gradientTransform="matrix(-153.56708,10.336153,10.336153,153.56708,168.70464,227.36188)"
       gradientUnits="userSpaceOnUse"
       y2="0"
       x2="1"
       y1="0"
       x1="0"><stop
         id="stop24"
         offset="0"
         style="stop-opacity:1;stop-color:#00c4ff" /><stop
         id="stop26"
         offset="1"
         style="stop-opacity:1;stop-color:#00ffff" /></linearGradient><linearGradient
       id="linearGradient48"
       spreadMethod="pad"
       gradientTransform="matrix(-83.796013,5.6400657,5.6400657,83.796013,83.741913,161.45438)"
       gradientUnits="userSpaceOnUse"
       y2="0"
       x2="1"
       y1="0"
       x1="0"><stop
         id="stop44"
         offset="0"
         style="stop-opacity:1;stop-color:#00ffff" /><stop
         id="stop46"
         offset="1"
         style="stop-opacity:1;stop-color:#00c4ff" /></linearGradient><linearGradient
       id="linearGradient68"
       spreadMethod="pad"
       gradientTransform="matrix(153.56573,-10.336062,-10.336062,-153.56573,-16.216206,87.398987)"
       gradientUnits="userSpaceOnUse"
       y2="0"
       x2="1"
       y1="0"
       x1="0"><stop
         id="stop64"
         offset="0"
         style="stop-opacity:1;stop-color:#00c4ff" /><stop
         id="stop66"
         offset="1"
         style="stop-opacity:1;stop-color:#00ffff" /></linearGradient><linearGradient
       id="linearGradient88"
       spreadMethod="pad"
       gradientTransform="matrix(83.799065,-5.6402707,-5.6402707,-83.799065,68.74691,153.3067)"
       gradientUnits="userSpaceOnUse"
       y2="0"
       x2="1"
       y1="0"
       x1="0"><stop
         id="stop84"
         offset="0"
         style="stop-opacity:1;stop-color:#00ffff" /><stop
         id="stop86"
         offset="1"
         style="stop-opacity:1;stop-color:#00c4ff" /></linearGradient></defs><g
     transform="matrix(1.3333333,0,0,-1.3333333,0,419.68133)"
     id="g10"><g
       id="g12"><g
         id="g14"><g
           id="g20"><g
             id="g22"><path
               id="path30"
               style="fill:url(#linearGradient28);stroke:none"
               d="M 150.987,314.762 C 112.244,285.779 73.563,256.715 34.928,227.59 v 0 C 22.833,216.325 14.005,200.476 13.135,183.82 v 0 c -0.612,-11.717 2.525,-26.034 13.299,-32.585 v 0 c 9.617,-1.589 27.046,-3.604 32.046,7.358 v 0 c -15.379,19.869 -10.046,34.937 11.371,47.26 v 0 c 19.328,11.123 39.166,22.706 58.363,33.963 v 0 c 15.678,9.193 23.382,21.099 22.875,39.512 v 0 c -0.065,11.81 -0.103,23.622 -0.102,35.434 z" /></g></g></g></g><g
       id="g32"><g
         id="g34"><g
           id="g40"><g
             id="g42"><path
               id="path50"
               style="fill:url(#linearGradient48);stroke:none"
               d="M 14.082,206.081 C -3.422,182.645 -0.014,144.94 0.828,116.812 v 0 C 1.233,103.289 17.207,100.29 27.366,105.695 v 0 c 11.189,5.953 23.124,12.632 33.95,18.46 v 0 c 16.609,8.942 8.437,25.369 -2.836,34.438 v 0 c 0,0 -2.337,1.894 -6.189,5.33 v 0 C 34.027,180.205 10.187,205.378 34.928,227.59 v 0 C 26.777,221.414 19.961,213.952 14.082,206.081" /></g></g></g></g><g
       id="g52"><g
         id="g54"><g
           id="g60"><g
             id="g62"><path
               id="path70"
               style="fill:url(#linearGradient68);stroke:none"
               d="m 94.009,156.167 c 15.38,-19.866 10.041,-34.939 -11.373,-47.259 v 0 C 63.312,97.79 43.477,86.198 24.277,74.945 v 0 C 8.594,65.752 0.892,53.847 1.4,35.433 v 0 C 1.466,23.621 1.501,11.812 1.502,0 v 0 c 38.742,28.984 77.424,58.047 116.061,87.171 v 0 c 12.088,11.266 20.925,27.124 21.789,43.768 v 0 c 0.609,11.713 -2.525,26.033 -13.295,32.586 v 0 c -3.633,0.6 -8.378,1.261 -13.148,1.261 v 0 c -7.86,0 -15.786,-1.795 -18.9,-8.619" /></g></g></g></g><g
       id="g72"><g
         id="g74"><g
           id="g80"><g
             id="g82"><path
               id="path90"
               style="fill:url(#linearGradient88);stroke:none"
               d="m 125.122,209.065 c -11.19,-5.951 -23.124,-12.629 -33.949,-18.461 v 0 C 74.566,181.66 82.735,165.24 94.009,156.167 v 0 c 0,0 2.336,-1.894 6.189,-5.328 v 0 c 18.27,-16.288 42.097,-41.449 17.365,-63.668 v 0 c 8.151,6.174 14.96,13.638 20.84,21.508 v 0 c 17.51,23.437 14.106,61.148 13.258,89.27 v 0 c -0.282,9.338 -7.982,13.657 -16.066,13.658 v 0 c -3.625,0 -7.326,-0.868 -10.473,-2.542" /></g></g></g></g></g></svg>